<?xml version="1.0" encoding="UTF-8" standalone="no"?>
<!DOCTYPE svg PUBLIC "-//W3C//DTD SVG 1.1//EN"
 "http://www.w3.org/Graphics/SVG/1.1/DTD/svg11.dtd">
<!-- Generated by graphviz version 7.0.6 (20230106.0513)
 -->
<!-- Pages: 1 -->
<svg width="830pt" height="356pt"
 viewBox="0.00 0.00 830.02 355.79" xmlns="http://www.w3.org/2000/svg" xmlns:xlink="http://www.w3.org/1999/xlink">
<g id="graph0" class="graph" transform="scale(1 1) rotate(0) translate(4 351.79)">
<polygon fill="white" stroke="none" points="-4,4 -4,-351.79 826.02,-351.79 826.02,4 -4,4"/>
<!-- q3 -->
<g id="node1" class="node">
<title>q3</title>
<ellipse fill="none" stroke="black" cx="175.02" cy="-307.39" rx="36.3" ry="36.3"/>
<ellipse fill="none" stroke="black" cx="175.02" cy="-307.39" rx="40.29" ry="40.29"/>
<text text-anchor="middle" x="175.02" y="-303.69" font-family="Times,serif" font-size="14.00">is_final</text>
</g>
<!-- q1 -->
<g id="node5" class="node">
<title>q1</title>
<ellipse fill="none" stroke="black" cx="378.02" cy="-196.49" rx="19.5" ry="19.5"/>
<text text-anchor="middle" x="378.02" y="-192.79" font-family="Times,serif" font-size="14.00">q1</text>
</g>
<!-- q3&#45;&gt;q1 -->
<g id="edge8" class="edge">
<title>q3&#45;&gt;q1</title>
<path fill="none" stroke="red" stroke-width="3.5" d="M206.43,-281.85C218.89,-272.67 234.1,-262.11 250.21,-252.32"/>
<path fill="none" stroke="black" stroke-width="3.5" d="M250.21,-252.32C261.25,-245.61 272.72,-239.27 284.02,-233.99 290.29,-231.07 295.59,-229.15 300.39,-227.77"/>
<path fill="none" stroke="green" stroke-width="3.5" d="M300.39,-227.77C315.21,-223.5 325.35,-224.28 345.02,-215.99 346.06,-215.55 347.12,-215.09 348.17,-214.6"/>
<polygon fill="green" stroke="green" stroke-width="3.5" points="349.62,-217.8 356.89,-210.09 346.4,-211.58 349.62,-217.8"/>
<text text-anchor="middle" x="325.52" y="-237.79" font-family="Times,serif" font-size="14.00">2, o_def, c_def</text>
</g>
<!-- q0 -->
<g id="node2" class="node">
<title>q0</title>
<polygon fill="none" stroke="black" points="531.7,-289.44 533.48,-289.54 535.24,-289.69 536.97,-289.88 538.67,-290.13 540.33,-290.42 541.94,-290.75 543.5,-291.14 545.01,-291.57 546.45,-292.04 547.82,-292.55 549.12,-293.1 550.34,-293.7 551.47,-294.33 552.53,-295 553.49,-295.7 554.37,-296.43 555.15,-297.19 555.83,-297.98 556.43,-298.8 556.93,-299.64 557.33,-300.5 557.64,-301.38 557.85,-302.28 557.98,-303.19 558.01,-304.11 557.95,-305.04 557.81,-305.98 557.59,-306.92 557.29,-307.86 556.91,-308.8 556.46,-309.74 555.94,-310.67 555.35,-311.59 554.71,-312.5 554,-313.4 553.24,-314.28 552.43,-315.14 551.58,-315.98 550.69,-316.8 549.75,-317.59 548.78,-318.35 547.78,-319.08 546.76,-319.78 545.7,-320.45 544.63,-321.08 543.54,-321.68 542.43,-322.23 541.3,-322.74 540.16,-323.21 539.01,-323.64 537.86,-324.03 536.69,-324.36 535.52,-324.65 534.34,-324.9 533.17,-325.09 531.98,-325.24 530.8,-325.34 529.61,-325.39 528.43,-325.39 527.24,-325.34 526.06,-325.24 524.87,-325.09 523.69,-324.9 522.52,-324.65 521.35,-324.36 520.18,-324.03 519.03,-323.64 517.88,-323.21 516.74,-322.74 515.61,-322.23 514.5,-321.68 513.41,-321.08 512.34,-320.45 511.28,-319.78 510.26,-319.08 509.26,-318.35 508.29,-317.59 507.35,-316.8 506.46,-315.98 505.6,-315.14 504.8,-314.28 504.04,-313.4 503.33,-312.5 502.69,-311.59 502.1,-310.67 501.58,-309.74 501.13,-308.8 500.75,-307.86 500.45,-306.92 500.23,-305.98 500.09,-305.04 500.03,-304.11 500.06,-303.19 500.19,-302.28 500.4,-301.38 500.71,-300.5 501.11,-299.64 501.61,-298.8 502.21,-297.98 502.89,-297.19 503.67,-296.43 504.55,-295.7 505.51,-295 506.56,-294.33 507.7,-293.7 508.92,-293.1 510.22,-292.55 511.59,-292.04 513.03,-291.57 514.54,-291.14 516.1,-290.75 517.71,-290.42 519.37,-290.13 521.07,-289.88 522.8,-289.69 524.56,-289.54 526.34,-289.44 528.12,-289.39 529.92,-289.39 531.7,-289.44"/>
<text text-anchor="middle" x="529.02" y="-303.69" font-family="Times,serif" font-size="14.00">q0</text>
</g>
<!-- trap -->
<g id="node4" class="node">
<title>trap</title>
<polygon fill="none" stroke="black" points="383.02,-36 329.02,-36 329.02,0 383.02,0 383.02,-36"/>
<text text-anchor="middle" x="356.02" y="-14.3" font-family="Times,serif" font-size="14.00">trap</text>
</g>
<!-- q0&#45;&gt;trap -->
<g id="edge9" class="edge">
<title>q0&#45;&gt;trap</title>
<path fill="none" stroke="black" stroke-width="2" d="M522.13,-289.41C514.04,-269.56 499.72,-234.7 484.02,-197.71"/>
<path fill="none" stroke="blue" stroke-width="2" d="M484.02,-197.71C468.28,-160.61 451.16,-121.35 437.56,-92.98"/>
<path fill="none" stroke="green" stroke-width="2" d="M437.56,-92.98C428.15,-73.34 420.43,-58.91 416.02,-54 410.01,-47.31 402.41,-41.55 394.66,-36.74"/>
<polygon fill="green" stroke="green" stroke-width="2" points="396.42,-33.72 385.99,-31.87 392.99,-39.82 396.42,-33.72"/>
<text text-anchor="middle" x="508.02" y="-147.8" font-family="Times,serif" font-size="14.00">b, c_def, c_def</text>
</g>
<!-- q0&#45;&gt;q1 -->
<g id="edge7" class="edge">
<title>q0&#45;&gt;q1</title>
<path fill="none" stroke="red" stroke-width="2" d="M499.58,-304.8C485.77,-303.37 468.5,-300.68 450.91,-295.64"/>
<path fill="none" stroke="black" stroke-width="2" d="M450.91,-295.64C433.4,-290.61 415.58,-283.25 400.52,-272.46"/>
<path fill="none" stroke="green" stroke-width="2" d="M400.52,-272.46C391.46,-265.96 383.4,-258.22 377.02,-248.99 372.94,-243.09 371.52,-235.83 371.48,-228.64"/>
<polygon fill="green" stroke="green" stroke-width="2" points="374.97,-228.99 372.44,-218.7 368,-228.32 374.97,-228.99"/>
<text text-anchor="middle" x="419.02" y="-237.79" font-family="Times,serif" font-size="14.00">2, o_def, k_def</text>
</g>
<!-- abso_deflutely_no_deft_trap -->
<g id="node6" class="node">
<title>abso_deflutely_no_deft_trap</title>
<polygon fill="none" stroke="black" points="674.52,-214.49 503.52,-214.49 503.52,-178.49 674.52,-178.49 674.52,-214.49"/>
<text text-anchor="middle" x="589.02" y="-192.79" font-family="Times,serif" font-size="14.00">abso_deflutely_no_deft_trap</text>
</g>
<!-- q0&#45;&gt;abso_deflutely_no_deft_trap -->
<g id="edge6" class="edge">
<title>q0&#45;&gt;abso_deflutely_no_deft_trap</title>
<path fill="none" stroke="black" stroke-width="2" d="M538.13,-289.85C541.24,-284.21 544.94,-277.5 548.91,-270.3"/>
<path fill="none" stroke="blue" stroke-width="2" d="M548.91,-270.3C552.87,-263.1 557.11,-255.41 561.28,-247.83"/>
<path fill="none" stroke="green" stroke-width="2" d="M561.28,-247.83C565.4,-240.37 569.45,-233.01 573.14,-226.31"/>
<polygon fill="green" stroke="green" stroke-width="2" points="576.2,-228.01 577.96,-217.56 570.07,-224.63 576.2,-228.01"/>
<text text-anchor="middle" x="626.02" y="-237.79" font-family="Times,serif" font-size="14.00">eps_def, c_def, c_def</text>
</g>
<!-- trap2 -->
<g id="node7" class="node">
<title>trap2</title>
<polygon fill="none" stroke="black" points="752.02,-214.49 698.02,-214.49 698.02,-178.49 752.02,-178.49 752.02,-214.49"/>
<text text-anchor="middle" x="725.02" y="-192.79" font-family="Times,serif" font-size="14.00">trap2</text>
</g>
<!-- q0&#45;&gt;trap2 -->
<g id="edge2" class="edge">
<title>q0&#45;&gt;trap2</title>
<path fill="none" stroke="black" stroke-width="2" d="M558.17,-301.5C572.11,-298.68 589.86,-294.47 608.67,-288.41"/>
<path fill="none" stroke="blue" stroke-width="2" d="M608.67,-288.41C627.2,-282.44 646.75,-274.69 664.74,-264.72"/>
<path fill="none" stroke="green" stroke-width="2" d="M664.74,-264.72C673.28,-259.99 681.47,-254.77 689.02,-248.99 697.12,-242.8 704.11,-234.26 709.71,-225.92"/>
<polygon fill="green" stroke="green" stroke-width="2" points="712.65,-227.83 714.89,-217.48 706.68,-224.17 712.65,-227.83"/>
<text text-anchor="middle" x="762.52" y="-237.79" font-family="Times,serif" font-size="14.00">any_def, c_def, c_def</text>
</g>
<!-- q2 -->
<g id="node3" class="node">
<title>q2</title>
<ellipse fill="none" stroke="black" cx="234.02" cy="-106.5" rx="19.5" ry="19.5"/>
<text text-anchor="middle" x="234.02" y="-102.8" font-family="Times,serif" font-size="14.00">q2</text>
</g>
<!-- q2&#45;&gt;q3 -->
<g id="edge3" class="edge">
<title>q2&#45;&gt;q3</title>
<path fill="none" stroke="black" stroke-width="2" d="M228.72,-125.55C225.65,-135.99 221.5,-150.08 216.97,-165.45"/>
<path fill="none" stroke="blue" stroke-width="2" d="M216.97,-165.45C212.6,-180.27 207.87,-196.28 203.4,-211.35"/>
<path fill="none" stroke="green" stroke-width="2" d="M203.4,-211.35C202.93,-212.91 202.48,-214.46 202.02,-215.99 198.13,-229.08 193.92,-243.23 190,-256.36"/>
<polygon fill="green" stroke="green" stroke-width="2" points="186.72,-255.09 187.21,-265.67 193.43,-257.09 186.72,-255.09"/>
<text text-anchor="middle" x="266.52" y="-192.79" font-family="Times,serif" font-size="14.00">c_def, k_def, k_def</text>
</g>
<!-- q2&#45;&gt;q3 -->
<g id="edge5" class="edge">
<title>q2&#45;&gt;q3</title>
<path fill="none" stroke="black" stroke-width="3.5" d="M214.76,-110.42C181.4,-115.77 111.66,-128.27 61.78,-146.27"/>
<path fill="none" stroke="blue" stroke-width="3.5" d="M61.78,-146.27C36.98,-155.22 17.09,-165.53 9.02,-177 -4.24,-195.85 -0.89,-213.26 11.69,-228.81"/>
<path fill="none" stroke="green" stroke-width="3.5" d="M11.69,-228.81C33.55,-255.81 83.27,-277.17 122.15,-290.58"/>
<polygon fill="green" stroke="green" stroke-width="3.5" points="120.67,-293.78 131.26,-293.61 122.87,-287.13 120.67,-293.78"/>
<text text-anchor="middle" x="51.02" y="-192.79" font-family="Times,serif" font-size="14.00">b, k_def, k_def</text>
</g>
<!-- q2&#45;&gt;q3 -->
<g id="edge12" class="edge">
<title>q2&#45;&gt;q3</title>
<path fill="none" stroke="black" stroke-width="3.5" d="M214.91,-112.23C197.83,-117.16 172.13,-126.32 149.86,-141.38"/>
<path fill="none" stroke="blue" stroke-width="3.5" d="M149.86,-141.38C135.92,-150.8 123.32,-162.54 115.02,-177 110.59,-184.72 108.58,-192.83 108.41,-201.06"/>
<path fill="none" stroke="green" stroke-width="3.5" d="M108.41,-201.06C107.95,-223.85 121.54,-247.58 136.57,-266.73"/>
<polygon fill="green" stroke="green" stroke-width="3.5" points="133.85,-268.95 142.96,-274.37 139.22,-264.45 133.85,-268.95"/>
<text text-anchor="middle" x="156.52" y="-192.79" font-family="Times,serif" font-size="14.00">a, k_def, k_def</text>
</g>
<!-- q2&#45;&gt;trap -->
<g id="edge11" class="edge">
<title>q2&#45;&gt;trap</title>
<path fill="none" stroke="black" stroke-width="2" d="M249.47,-94.54C255.47,-90.29 262.83,-85.07 270.86,-79.38"/>
<path fill="none" stroke="blue" stroke-width="2" d="M270.86,-79.38C278.89,-73.69 287.58,-67.52 296.25,-61.38"/>
<path fill="none" stroke="green" stroke-width="2" d="M296.25,-61.38C304.78,-55.33 313.28,-49.3 321.08,-43.77"/>
<polygon fill="green" stroke="green" stroke-width="2" points="322.82,-46.83 328.95,-38.19 318.77,-41.12 322.82,-46.83"/>
<text text-anchor="middle" x="358.52" y="-57.8" font-family="Times,serif" font-size="14.00">c_def, k_def, k_def</text>
</g>
<!-- trap&#45;&gt;trap -->
<g id="edge1" class="edge">
<title>trap&#45;&gt;trap</title>
<path fill="none" stroke="black" stroke-width="3.5" d="M383.26,-22.07C387.16,-22.11 390.78,-21.91 393.71,-21.49"/>
<path fill="none" stroke="blue" stroke-width="3.5" d="M393.71,-21.49C396.89,-21.03 399.27,-20.3 400.36,-19.3"/>
<path fill="none" stroke="green" stroke-width="3.5" d="M400.36,-19.3C400.79,-18.91 401.02,-18.47 401.02,-18 401.02,-17.04 400.08,-16.24 398.44,-15.62"/>
<polygon fill="green" stroke="green" stroke-width="3.5" points="398.85,-12.15 388.53,-14.51 398.08,-19.1 398.85,-12.15"/>
<text text-anchor="middle" x="442.02" y="-14.3" font-family="Times,serif" font-size="14.00">b, c_def, c_def</text>
</g>
<!-- trap&#45;&gt;trap -->
<g id="edge4" class="edge">
<title>trap&#45;&gt;trap</title>
<path fill="none" stroke="black" stroke-width="3.5" d="M383.22,-23.95C407.15,-26.61 439.74,-26.86 461.08,-24.7"/>
<path fill="none" stroke="blue" stroke-width="3.5" d="M461.08,-24.7C474.17,-23.38 483.02,-21.14 483.02,-18 483.02,-15.34 476.69,-13.34 466.82,-11.98"/>
<path fill="none" stroke="green" stroke-width="3.5" d="M466.82,-11.98C449.78,-9.63 422.17,-9.22 398.34,-10.75"/>
<polygon fill="green" stroke="green" stroke-width="3.5" points="398.16,-7.25 388.5,-11.59 398.76,-14.22 398.16,-7.25"/>
<text text-anchor="middle" x="524.02" y="-14.3" font-family="Times,serif" font-size="14.00">a, c_def, c_def</text>
</g>
<!-- q1&#45;&gt;q2 -->
<g id="edge10" class="edge">
<title>q1&#45;&gt;q2</title>
<path fill="none" stroke="red" stroke-width="3.5" d="M361.5,-185.4C353.47,-180.49 343.1,-174.15 331.74,-167.22"/>
<path fill="none" stroke="black" stroke-width="3.5" d="M331.74,-167.22C320.39,-160.28 308.05,-152.74 296.09,-145.43"/>
<path fill="none" stroke="green" stroke-width="3.5" d="M296.09,-145.43C284.31,-138.23 272.88,-131.25 263.12,-125.28"/>
<polygon fill="green" stroke="green" stroke-width="3.5" points="265.22,-122.46 254.87,-120.24 261.57,-128.44 265.22,-122.46"/>
<text text-anchor="middle" x="355.52" y="-147.8" font-family="Times,serif" font-size="14.00">1, c_def, o_def</text>
</g>
</g>
</svg>
