<?xml version="1.0" encoding="UTF-8" standalone="no"?>
<!DOCTYPE svg PUBLIC "-//W3C//DTD SVG 1.1//EN"
 "http://www.w3.org/Graphics/SVG/1.1/DTD/svg11.dtd">
<!-- Generated by graphviz version 7.0.6 (20230106.0513)
 -->
<!-- Pages: 1 -->
<svg width="807pt" height="356pt"
 viewBox="0.00 0.00 807.39 355.79" xmlns="http://www.w3.org/2000/svg" xmlns:xlink="http://www.w3.org/1999/xlink">
<g id="graph0" class="graph" transform="scale(1 1) rotate(0) translate(4 351.79)">
<polygon fill="white" stroke="none" points="-4,4 -4,-351.79 803.39,-351.79 803.39,4 -4,4"/>
<!-- q3 -->
<g id="node1" class="node">
<title>q3</title>
<ellipse fill="none" stroke="black" cx="202.39" cy="-307.39" rx="36.3" ry="36.3"/>
<ellipse fill="none" stroke="black" cx="202.39" cy="-307.39" rx="40.29" ry="40.29"/>
<text text-anchor="middle" x="202.39" y="-303.69" font-family="Times,serif" font-size="14.00">is_final</text>
</g>
<!-- q1 -->
<g id="node3" class="node">
<title>q1</title>
<ellipse fill="none" stroke="black" cx="384.39" cy="-196.49" rx="19.5" ry="19.5"/>
<text text-anchor="middle" x="384.39" y="-192.79" font-family="Times,serif" font-size="14.00">q1</text>
</g>
<!-- q3&#45;&gt;q1 -->
<g id="edge8" class="edge">
<title>q3&#45;&gt;q1</title>
<path fill="none" stroke="red" stroke-width="3.5" d="M233.59,-281.5C244.4,-273.29 257.24,-263.95 270.81,-254.93"/>
<path fill="none" stroke="black" stroke-width="3.5" d="M270.81,-254.93C282.08,-247.45 293.86,-240.19 305.39,-233.99 308.18,-232.5 310.7,-231.26 313.04,-230.2"/>
<path fill="none" stroke="green" stroke-width="3.5" d="M313.04,-230.2C326.96,-223.89 334.4,-224.03 351.39,-215.99 352.42,-215.51 353.45,-215.01 354.5,-214.49"/>
<polygon fill="green" stroke="green" stroke-width="3.5" points="356,-217.65 363.17,-209.86 352.7,-211.48 356,-217.65"/>
<text text-anchor="middle" x="347.89" y="-237.79" font-family="Times,serif" font-size="14.00">2, my_o, my_c</text>
</g>
<!-- q0 -->
<g id="node2" class="node">
<title>q0</title>
<polygon fill="none" stroke="black" points="522.08,-289.44 523.85,-289.54 525.61,-289.69 527.34,-289.88 529.04,-290.13 530.7,-290.42 532.32,-290.75 533.88,-291.14 535.38,-291.57 536.82,-292.04 538.19,-292.55 539.49,-293.1 540.71,-293.7 541.85,-294.33 542.9,-295 543.87,-295.7 544.74,-296.43 545.52,-297.19 546.21,-297.98 546.8,-298.8 547.3,-299.64 547.7,-300.5 548.01,-301.38 548.23,-302.28 548.35,-303.19 548.38,-304.11 548.33,-305.04 548.19,-305.98 547.97,-306.92 547.66,-307.86 547.28,-308.8 546.83,-309.74 546.31,-310.67 545.73,-311.59 545.08,-312.5 544.38,-313.4 543.62,-314.28 542.81,-315.14 541.96,-315.98 541.06,-316.8 540.13,-317.59 539.16,-318.35 538.16,-319.08 537.13,-319.78 536.08,-320.45 535,-321.08 533.91,-321.68 532.8,-322.23 531.67,-322.74 530.54,-323.21 529.39,-323.64 528.23,-324.03 527.07,-324.36 525.9,-324.65 524.72,-324.9 523.54,-325.09 522.36,-325.24 521.17,-325.34 519.99,-325.39 518.8,-325.39 517.62,-325.34 516.43,-325.24 515.25,-325.09 514.07,-324.9 512.89,-324.65 511.72,-324.36 510.56,-324.03 509.4,-323.64 508.25,-323.21 507.11,-322.74 505.99,-322.23 504.88,-321.68 503.78,-321.08 502.71,-320.45 501.66,-319.78 500.63,-319.08 499.63,-318.35 498.66,-317.59 497.73,-316.8 496.83,-315.98 495.98,-315.14 495.17,-314.28 494.41,-313.4 493.71,-312.5 493.06,-311.59 492.48,-310.67 491.96,-309.74 491.5,-308.8 491.13,-307.86 490.82,-306.92 490.6,-305.98 490.46,-305.04 490.41,-304.11 490.44,-303.19 490.56,-302.28 490.78,-301.38 491.09,-300.5 491.49,-299.64 491.99,-298.8 492.58,-297.98 493.27,-297.19 494.05,-296.43 494.92,-295.7 495.89,-295 496.94,-294.33 498.08,-293.7 499.3,-293.1 500.59,-292.55 501.97,-292.04 503.41,-291.57 504.91,-291.14 506.47,-290.75 508.09,-290.42 509.75,-290.13 511.45,-289.88 513.18,-289.69 514.94,-289.54 516.71,-289.44 518.5,-289.39 520.29,-289.39 522.08,-289.44"/>
<text text-anchor="middle" x="519.39" y="-303.69" font-family="Times,serif" font-size="14.00">q0</text>
</g>
<!-- q0&#45;&gt;q1 -->
<g id="edge6" class="edge">
<title>q0&#45;&gt;q1</title>
<path fill="none" stroke="red" stroke-width="2" d="M491.69,-298.89C481,-295.46 468.22,-290.74 455.25,-284.56"/>
<path fill="none" stroke="black" stroke-width="2" d="M455.25,-284.56C442.42,-278.44 429.4,-270.89 418,-261.7"/>
<path fill="none" stroke="green" stroke-width="2" d="M418,-261.7C413.12,-257.77 408.54,-253.54 404.39,-248.99 399.01,-243.09 395.02,-235.58 392.07,-228.13"/>
<polygon fill="green" stroke="green" stroke-width="2" points="395.46,-227.22 389,-218.82 388.81,-229.41 395.46,-227.22"/>
<text text-anchor="middle" x="446.89" y="-237.79" font-family="Times,serif" font-size="14.00">2, my_o, my_k</text>
</g>
<!-- trap -->
<g id="node4" class="node">
<title>trap</title>
<polygon fill="none" stroke="black" points="410.39,-36 356.39,-36 356.39,0 410.39,0 410.39,-36"/>
<text text-anchor="middle" x="383.39" y="-14.3" font-family="Times,serif" font-size="14.00">trap</text>
</g>
<!-- q0&#45;&gt;trap -->
<g id="edge9" class="edge">
<title>q0&#45;&gt;trap</title>
<path fill="none" stroke="black" stroke-width="2" d="M518.79,-289.04C517.9,-272.46 515.68,-245.44 510.15,-214.28"/>
<path fill="none" stroke="blue" stroke-width="2" d="M510.15,-214.28C504.7,-183.6 496.06,-148.92 482.32,-116.26"/>
<path fill="none" stroke="green" stroke-width="2" d="M482.32,-116.26C472.92,-93.92 461.15,-72.53 446.39,-54 439.98,-45.95 431.18,-39.46 422.2,-34.36"/>
<polygon fill="green" stroke="green" stroke-width="2" points="424.08,-31.39 413.58,-29.99 420.92,-37.63 424.08,-31.39"/>
<text text-anchor="middle" x="538.39" y="-147.8" font-family="Times,serif" font-size="14.00">b, my_c, my_c</text>
</g>
<!-- trap2 -->
<g id="node5" class="node">
<title>trap2</title>
<polygon fill="none" stroke="black" points="585.39,-214.49 531.39,-214.49 531.39,-178.49 585.39,-178.49 585.39,-214.49"/>
<text text-anchor="middle" x="558.39" y="-192.79" font-family="Times,serif" font-size="14.00">trap2</text>
</g>
<!-- q0&#45;&gt;trap2 -->
<g id="edge5" class="edge">
<title>q0&#45;&gt;trap2</title>
<path fill="none" stroke="black" stroke-width="2" d="M525.49,-289.38C527.49,-283.79 529.86,-277.18 532.39,-270.11"/>
<path fill="none" stroke="blue" stroke-width="2" d="M532.39,-270.11C534.92,-263.04 537.62,-255.5 540.28,-248.07"/>
<path fill="none" stroke="green" stroke-width="2" d="M540.28,-248.07C542.91,-240.74 545.49,-233.51 547.86,-226.91"/>
<polygon fill="green" stroke="green" stroke-width="2" points="551.12,-228.19 551.19,-217.6 544.53,-225.83 551.12,-228.19"/>
<text text-anchor="middle" x="604.89" y="-237.79" font-family="Times,serif" font-size="14.00">my_any, my_c, my_c</text>
</g>
<!-- absolutely_not_trap -->
<g id="node6" class="node">
<title>absolutely_not_trap</title>
<polygon fill="none" stroke="black" points="753.39,-214.49 629.39,-214.49 629.39,-178.49 753.39,-178.49 753.39,-214.49"/>
<text text-anchor="middle" x="691.39" y="-192.79" font-family="Times,serif" font-size="14.00">absolutely_not_trap</text>
</g>
<!-- q0&#45;&gt;absolutely_not_trap -->
<g id="edge12" class="edge">
<title>q0&#45;&gt;absolutely_not_trap</title>
<path fill="none" stroke="black" stroke-width="2" d="M548.72,-302.17C562.01,-299.68 578.61,-295.85 595.89,-290.08"/>
<path fill="none" stroke="blue" stroke-width="2" d="M595.89,-290.08C612.98,-284.37 630.75,-276.76 646.65,-266.66"/>
<path fill="none" stroke="green" stroke-width="2" d="M646.65,-266.66C654.84,-261.45 662.54,-255.59 669.39,-248.99 675.65,-242.98 680.21,-234.89 683.51,-226.92"/>
<polygon fill="green" stroke="green" stroke-width="2" points="686.76,-228.24 686.72,-217.65 680.14,-225.96 686.76,-228.24"/>
<text text-anchor="middle" x="739.39" y="-237.79" font-family="Times,serif" font-size="14.00">my_eps, my_c, my_c</text>
</g>
<!-- q2 -->
<g id="node7" class="node">
<title>q2</title>
<ellipse fill="none" stroke="black" cx="262.39" cy="-106.5" rx="19.5" ry="19.5"/>
<text text-anchor="middle" x="262.39" y="-102.8" font-family="Times,serif" font-size="14.00">q2</text>
</g>
<!-- q1&#45;&gt;q2 -->
<g id="edge7" class="edge">
<title>q1&#45;&gt;q2</title>
<path fill="none" stroke="red" stroke-width="3.5" d="M368.94,-184.35C362.35,-179.59 354.1,-173.64 345.13,-167.17"/>
<path fill="none" stroke="black" stroke-width="3.5" d="M345.13,-167.17C336.16,-160.7 326.47,-153.71 316.99,-146.87"/>
<path fill="none" stroke="green" stroke-width="3.5" d="M316.99,-146.87C307.65,-140.14 298.51,-133.55 290.46,-127.74"/>
<polygon fill="green" stroke="green" stroke-width="3.5" points="292.56,-124.94 282.4,-121.93 288.47,-130.62 292.56,-124.94"/>
<text text-anchor="middle" x="372.89" y="-147.8" font-family="Times,serif" font-size="14.00">1, my_c, my_o</text>
</g>
<!-- trap&#45;&gt;trap -->
<g id="edge3" class="edge">
<title>trap&#45;&gt;trap</title>
<path fill="none" stroke="black" stroke-width="3.5" d="M410.64,-22.07C414.54,-22.11 418.15,-21.91 421.09,-21.49"/>
<path fill="none" stroke="blue" stroke-width="3.5" d="M421.09,-21.49C424.27,-21.03 426.65,-20.3 427.74,-19.3"/>
<path fill="none" stroke="green" stroke-width="3.5" d="M427.74,-19.3C428.17,-18.91 428.39,-18.47 428.39,-18 428.39,-17.04 427.45,-16.24 425.82,-15.62"/>
<polygon fill="green" stroke="green" stroke-width="3.5" points="426.23,-12.15 415.9,-14.51 425.45,-19.1 426.23,-12.15"/>
<text text-anchor="middle" x="469.89" y="-14.3" font-family="Times,serif" font-size="14.00">a, my_c, my_c</text>
</g>
<!-- trap&#45;&gt;trap -->
<g id="edge10" class="edge">
<title>trap&#45;&gt;trap</title>
<path fill="none" stroke="black" stroke-width="3.5" d="M410.74,-23.95C434.84,-26.62 467.73,-26.86 489.25,-24.7"/>
<path fill="none" stroke="blue" stroke-width="3.5" d="M489.25,-24.7C502.46,-23.38 511.39,-21.14 511.39,-18 511.39,-15.34 505.01,-13.33 495.04,-11.98"/>
<path fill="none" stroke="green" stroke-width="3.5" d="M495.04,-11.98C477.84,-9.63 449.99,-9.22 425.98,-10.75"/>
<polygon fill="green" stroke="green" stroke-width="3.5" points="425.69,-7.26 416.02,-11.6 426.28,-14.23 425.69,-7.26"/>
<text text-anchor="middle" x="553.39" y="-14.3" font-family="Times,serif" font-size="14.00">b, my_c, my_c</text>
</g>
<!-- q2&#45;&gt;q3 -->
<g id="edge1" class="edge">
<title>q2&#45;&gt;q3</title>
<path fill="none" stroke="black" stroke-width="3.5" d="M257.15,-125.57C254.15,-135.86 250.1,-149.7 245.65,-164.81"/>
<path fill="none" stroke="blue" stroke-width="3.5" d="M245.65,-164.81C241.35,-179.39 236.67,-195.16 232.18,-210.07"/>
<path fill="none" stroke="green" stroke-width="3.5" d="M232.18,-210.07C231.58,-212.06 230.99,-214.04 230.39,-215.99 226.64,-228.43 222.53,-241.8 218.65,-254.35"/>
<polygon fill="green" stroke="green" stroke-width="3.5" points="215.42,-252.95 215.79,-263.54 222.1,-255.03 215.42,-252.95"/>
<text text-anchor="middle" x="283.89" y="-192.79" font-family="Times,serif" font-size="14.00">a, my_k, my_k</text>
</g>
<!-- q2&#45;&gt;q3 -->
<g id="edge2" class="edge">
<title>q2&#45;&gt;q3</title>
<path fill="none" stroke="black" stroke-width="2" d="M242.93,-109.84C205.81,-114.61 123.52,-126.67 66.33,-146"/>
<path fill="none" stroke="blue" stroke-width="2" d="M66.33,-146C40.23,-154.81 19.36,-165.15 10.39,-177 -6.29,-199.04 -0.15,-218.58 17.75,-235.37"/>
<path fill="none" stroke="green" stroke-width="2" d="M17.75,-235.37C46.81,-262.62 106.87,-282.62 150.62,-294.33"/>
<polygon fill="green" stroke="green" stroke-width="2" points="149.37,-297.62 159.92,-296.75 151.12,-290.85 149.37,-297.62"/>
<text text-anchor="middle" x="64.89" y="-192.79" font-family="Times,serif" font-size="14.00">my_c, my_k, my_k</text>
</g>
<!-- q2&#45;&gt;q3 -->
<g id="edge4" class="edge">
<title>q2&#45;&gt;q3</title>
<path fill="none" stroke="black" stroke-width="3.5" d="M243.45,-112C226.19,-116.79 200,-125.81 177.23,-140.88"/>
<path fill="none" stroke="blue" stroke-width="3.5" d="M177.23,-140.88C162.9,-150.37 149.93,-162.25 141.39,-177 136.92,-184.72 134.91,-192.83 134.75,-201.06"/>
<path fill="none" stroke="green" stroke-width="3.5" d="M134.75,-201.06C134.31,-224.1 148.42,-248.1 163.86,-267.35"/>
<polygon fill="green" stroke="green" stroke-width="3.5" points="160.95,-269.34 170.11,-274.67 166.28,-264.79 160.95,-269.34"/>
<text text-anchor="middle" x="183.89" y="-192.79" font-family="Times,serif" font-size="14.00">b, my_k, my_k</text>
</g>
<!-- q2&#45;&gt;trap -->
<g id="edge11" class="edge">
<title>q2&#45;&gt;trap</title>
<path fill="none" stroke="black" stroke-width="2" d="M277.72,-94.54C283.64,-90.31 290.9,-85.12 298.83,-79.45"/>
<path fill="none" stroke="blue" stroke-width="2" d="M298.83,-79.45C306.75,-73.79 315.33,-67.66 323.88,-61.55"/>
<path fill="none" stroke="green" stroke-width="2" d="M323.88,-61.55C332.3,-55.52 340.7,-49.52 348.42,-44"/>
<polygon fill="green" stroke="green" stroke-width="2" points="350.44,-46.86 356.53,-38.2 346.36,-41.17 350.44,-46.86"/>
<text text-anchor="middle" x="387.89" y="-57.8" font-family="Times,serif" font-size="14.00">my_c, my_k, my_k</text>
</g>
</g>
</svg>
